{"asset":{"version":"2.0","generator":"babylon.js glTF exporter for Maya 2018 v20201020.3"},"scene":0,"scenes":[{"nodes":[0]}],"nodes":[{"mesh":0,"name":"Crescent"}],"meshes":[{"primitives":[{"attributes":{"POSITION":1,"TANGENT":2,"NORMAL":3,"TEXCOORD_0":4},"indices":0,"material":0}],"name":"Crescent"}],"accessors":[{"bufferView":0,"componentType":5123,"count":1392,"type":"SCALAR","name":"accessorIndices"},{"bufferView":1,"componentType":5126,"count":1392,"max":[0.08751247,0.489632338,0.4811157],"min":[-0.08751247,-0.489632368,-0.4811157],"type":"VEC3","name":"accessorPositions"},{"bufferView":2,"componentType":5126,"count":1392,"type":"VEC4","name":"accessorTangents"},{"bufferView":1,"byteOffset":16704,"componentType":5126,"count":1392,"type":"VEC3","name":"accessorNormals"},{"bufferView":3,"componentType":5126,"count":1392,"type":"VEC2","name":"accessorUVs"}],"bufferViews":[{"buffer":0,"byteLength":2784,"name":"bufferViewScalar"},{"buffer":0,"byteOffset":2784,"byteLength":33408,"byteStride":12,"name":"bufferViewFloatVec3"},{"buffer":0,"byteOffset":36192,"byteLength":22272,"byteStride":16,"name":"bufferViewFloatVec4"},{"buffer":0,"byteOffset":58464,"byteLength":11136,"byteStride":8,"name":"bufferViewFloatVec2"}],"buffers":[{"uri":"moon_v2.bin","byteLength":69600}],"materials":[{"pbrMetallicRoughness":{"baseColorFactor":[0.8,0.8,0.8,1.0],"baseColorTexture":{"index":1},"metallicRoughnessTexture":{"index":2}},"normalTexture":{"index":0},"name":"aiStandardSurface1"}],"textures":[{"sampler":0,"source":0,"name":"crescent_LP_normalmap.png"},{"sampler":0,"source":1,"name":"crescent_LP_basecolor.png"},{"sampler":0,"source":2,"name":"file80.jpg"}],"images":[{"uri":"crescent_LP_normalmap.png"},{"uri":"crescent_LP_basecolor.png"},{"uri":"file80.jpg"}],"samplers":[{"magFilter":9729,"minFilter":9987}]}